<svg class="icon" style="width: 1em;height: 1em;vertical-align: middle;fill: currentColor;overflow: hidden;" viewBox="0 0 1024 1024" version="1.1" xmlns="http://www.w3.org/2000/svg" p-id="3915"><path d="M418.264615 383.606154h22.055385c7.876923 0 14.572308-6.301538 14.572308-14.572308v-12.209231c0-7.876923-6.301538-14.572308-14.572308-14.572307h-22.055385c-7.876923 0-14.572308 6.301538-14.572307 14.572307v12.209231c0 8.270769 6.301538 14.572308 14.572307 14.572308zM418.264615 432.836923h22.055385c7.876923 0 14.572308-6.301538 14.572308-14.572308v-12.20923c0-7.876923-6.301538-14.572308-14.572308-14.572308h-22.055385c-7.876923 0-14.572308 6.301538-14.572307 14.572308v12.20923c0 8.270769 6.301538 14.572308 14.572307 14.572308zM454.498462 456.073846c0-7.876923-6.301538-14.572308-14.572308-14.572308h-22.055385c-4.726154 0-9.058462 2.363077-11.815384 5.907693 6.301538 10.633846 12.209231 22.449231 18.116923 35.052307h15.36c7.876923 0 14.572308-6.301538 14.572307-14.572307v-11.815385zM454.498462 505.304615c0-7.876923-6.301538-14.572308-14.572308-14.572307h-11.421539c5.513846 12.603077 11.027692 25.993846 16.147693 40.172307 5.907692-1.969231 9.846154-7.483077 9.846154-13.784615v-11.815385zM448.590769 543.113846c1.969231 6.301538 3.938462 12.996923 5.907693 20.086154v-8.270769c0-5.12-2.363077-9.452308-5.907693-11.815385zM513.575385 357.218462c0-7.876923-6.301538-14.572308-14.572308-14.572308h-22.055385c-7.876923 0-14.572308 6.301538-14.572307 14.572308v12.20923c0 7.876923 6.301538 14.572308 14.572307 14.572308h22.055385c7.876923 0 14.572308-6.301538 14.572308-14.572308v-12.20923zM513.575385 406.449231c0-7.876923-6.301538-14.572308-14.572308-14.572308h-22.055385c-7.876923 0-14.572308 6.301538-14.572307 14.572308v12.209231c0 7.876923 6.301538 14.572308 14.572307 14.572307h22.055385c7.876923 0 14.572308-6.301538 14.572308-14.572307v-12.209231zM513.575385 456.073846c0-7.876923-6.301538-14.572308-14.572308-14.572308h-22.055385c-7.876923 0-14.572308 6.301538-14.572307 14.572308v12.209231c0 7.876923 6.301538 14.572308 14.572307 14.572308h22.055385c7.876923 0 14.572308-6.301538 14.572308-14.572308v-12.209231zM513.575385 505.304615c0-7.876923-6.301538-14.572308-14.572308-14.572307h-22.055385c-7.876923 0-14.572308 6.301538-14.572307 14.572307v12.209231c0 7.876923 6.301538 14.572308 14.572307 14.572308h22.055385c7.876923 0 14.572308-6.301538 14.572308-14.572308v-12.209231zM513.575385 554.535385c0-7.876923-6.301538-14.572308-14.572308-14.572308h-22.055385c-7.876923 0-14.572308 6.301538-14.572307 14.572308v12.20923c0 7.876923 6.301538 14.572308 14.572307 14.572308h22.055385c7.876923 0 14.572308-6.301538 14.572308-14.572308v-12.20923zM513.575385 604.16c0-7.876923-6.301538-14.572308-14.572308-14.572308h-22.055385c-6.695385 0-12.209231 4.332308-13.784615 10.24 1.969231 8.664615 3.544615 18.116923 5.12 27.175385 2.363077 1.969231 5.513846 3.150769 9.058461 3.150769h22.055385c7.876923 0 14.572308-6.301538 14.572308-14.572308v-11.421538zM513.575385 653.390769c0-7.876923-6.301538-14.572308-14.572308-14.572307h-22.055385c-2.363077 0-4.726154 0.787692-6.695384 1.575384 2.363077 13.390769 4.332308 26.387692 7.08923 39.384616h21.661539c7.876923 0 14.572308-6.301538 14.572308-14.572308v-11.815385zM513.575385 702.621538c0-7.876923-6.301538-14.572308-14.572308-14.572307h-20.086154c2.756923 13.784615 5.513846 27.569231 8.270769 40.96h11.815385c7.876923 0 14.572308-6.301538 14.572308-14.572308v-11.815385zM573.046154 357.218462c0-7.876923-6.301538-14.572308-14.572308-14.572308h-21.661538c-7.876923 0-14.572308 6.301538-14.572308 14.572308v12.20923c0 7.876923 6.301538 14.572308 14.572308 14.572308h22.055384c7.876923 0 14.572308-6.301538 14.572308-14.572308v-12.20923zM573.046154 406.449231c0-7.876923-6.301538-14.572308-14.572308-14.572308h-22.055384c-7.876923 0-14.572308 6.301538-14.572308 14.572308v12.209231c0 7.876923 6.301538 14.572308 14.572308 14.572307h22.055384c7.876923 0 14.572308-6.301538 14.572308-14.572307v-12.209231zM573.046154 456.073846c0-7.876923-6.301538-14.572308-14.572308-14.572308h-22.055384c-7.876923 0-14.572308 6.301538-14.572308 14.572308v12.209231c0 7.876923 6.301538 14.572308 14.572308 14.572308h22.055384c7.876923 0 14.572308-6.301538 14.572308-14.572308v-12.209231zM573.046154 505.304615c0-7.876923-6.301538-14.572308-14.572308-14.572307h-22.055384c-7.876923 0-14.572308 6.301538-14.572308 14.572307v12.209231c0 7.876923 6.301538 14.572308 14.572308 14.572308h22.055384c7.876923 0 14.572308-6.301538 14.572308-14.572308v-12.209231zM573.046154 554.535385c0-7.876923-6.301538-14.572308-14.572308-14.572308h-22.055384c-7.876923 0-14.572308 6.301538-14.572308 14.572308v12.20923c0 7.876923 6.301538 14.572308 14.572308 14.572308h22.055384c7.876923 0 14.572308-6.301538 14.572308-14.572308v-12.20923zM570.683077 623.852308l2.363077-5.907693v-14.178461c0-7.876923-6.301538-14.572308-14.572308-14.572308h-22.055384c-7.876923 0-14.572308 6.301538-14.572308 14.572308v12.209231c0 7.876923 6.301538 14.572308 14.572308 14.572307h22.055384c5.12 0 9.452308-2.756923 12.209231-6.695384zM564.775385 640.393846c-1.969231-0.787692-3.938462-1.575385-6.301539-1.575384h-22.055384c-7.876923 0-14.572308 6.301538-14.572308 14.572307v12.209231c0 7.876923 6.301538 14.572308 14.572308 14.572308h17.32923c3.544615-13.784615 7.089231-27.175385 11.027693-39.778462zM551.778462 688.443077h-15.36c-7.876923 0-14.572308 6.301538-14.572308 14.572308v12.20923c0 7.876923 6.301538 14.572308 14.572308 14.572308h6.301538c2.756923-14.572308 5.907692-27.963077 9.058462-41.353846zM612.824615 342.646154h-16.935384c-7.876923 0-14.572308 6.301538-14.572308 14.572308v12.20923c0 7.876923 6.301538 14.572308 14.572308 14.572308h22.055384c7.876923 0 14.572308-6.301538 14.572308-14.572308v-12.20923c0-7.876923-6.301538-14.572308-14.572308-14.572308h-5.12zM422.990769 334.375385h20.873846c7.483077 0 13.390769-6.301538 13.39077-14.572308v-12.209231c0-7.876923-5.907692-14.572308-13.39077-14.572308h-20.873846c-7.483077 0-13.390769 6.301538-13.390769 14.572308v12.209231c0 7.876923 5.907692 14.572308 13.390769 14.572308zM513.575385 307.593846c0-7.876923-5.907692-14.572308-13.39077-14.572308h-20.873846c-7.483077 0-13.390769 6.301538-13.390769 14.572308v12.209231c0 7.876923 5.907692 14.572308 13.390769 14.572308h20.873846c7.483077 0 13.390769-6.301538 13.39077-14.572308v-12.209231zM522.24 319.803077c0 7.876923 5.907692 14.572308 13.390769 14.572308h20.48c7.483077 0 13.390769-6.301538 13.390769-14.572308v-12.209231c0-7.876923-5.907692-14.572308-13.390769-14.572308H535.630769c-7.483077 0-13.390769 6.301538-13.390769 14.572308v12.209231zM607.704615 293.415385h-15.753846c-7.483077 0-13.390769 6.301538-13.390769 14.572307v12.209231c0 7.876923 5.907692 14.572308 13.390769 14.572308h20.873846c7.483077 0 13.390769-6.301538 13.39077-14.572308v-12.209231c0-7.876923-5.907692-14.572308-13.39077-14.572307h-5.12zM428.110769 284.750769h19.692308c7.089231 0 12.603077-6.301538 12.603077-14.572307v-12.209231c0-7.876923-5.513846-14.572308-12.603077-14.572308h-19.692308c-7.089231 0-12.603077 6.301538-12.603077 14.572308v12.209231c0 8.270769 5.513846 14.572308 12.603077 14.572307zM513.575385 258.363077c0-7.876923-5.513846-14.572308-12.603077-14.572308h-19.692308c-7.089231 0-12.603077 6.301538-12.603077 14.572308v12.209231c0 7.876923 5.513846 14.572308 12.603077 14.572307h19.692308c7.089231 0 12.603077-6.301538 12.603077-14.572307v-12.209231zM522.24 270.572308c0 7.876923 5.513846 14.572308 12.603077 14.572307h19.692308c7.089231 0 12.603077-6.301538 12.603077-14.572307v-12.209231c0-7.876923-5.513846-14.572308-12.603077-14.572308h-19.692308c-7.089231 0-12.603077 6.301538-12.603077 14.572308v12.209231zM602.978462 243.790769h-14.572308c-7.089231 0-12.603077 6.301538-12.603077 14.572308v12.209231c0 7.876923 5.513846 14.572308 12.603077 14.572307h19.692308c7.089231 0 12.603077-6.301538 12.603076-14.572307v-12.209231c0-7.876923-5.513846-14.572308-12.603076-14.572308h-5.12zM433.230769 235.52h18.510769c6.301538 0 11.815385-5.907692 11.815385-12.996923v-11.027692c0-7.089231-5.12-12.996923-11.815385-12.996923H433.230769c-6.301538 0-11.815385 5.907692-11.815384 12.996923v11.027692c0 7.089231 5.12 12.996923 11.815384 12.996923zM513.575385 211.495385c0-7.089231-5.12-12.996923-11.815385-12.996923h-18.510769c-6.301538 0-11.815385 5.907692-11.815385 12.996923v11.027692c0 7.089231 5.12 12.996923 11.815385 12.996923h18.510769c6.301538 0 11.815385-5.907692 11.815385-12.996923v-11.027692zM522.24 222.523077c0 7.089231 5.12 12.996923 11.815385 12.996923h18.510769c6.301538 0 11.815385-5.907692 11.815384-12.996923v-11.027692c0-7.089231-5.12-12.996923-11.815384-12.996923h-18.510769c-6.301538 0-11.815385 5.907692-11.815385 12.996923v11.027692zM597.858462 198.498462h-13.784616c-6.301538 0-11.815385 5.907692-11.815384 12.996923v11.027692c0 7.089231 5.12 12.996923 11.815384 12.996923h18.510769c6.301538 0 11.815385-5.907692 11.815385-12.996923v-11.027692c0-7.089231-5.12-12.996923-11.815385-12.996923h-4.726153zM437.956923 190.227692h17.723077c5.907692 0 10.633846-5.513846 10.633846-12.603077v-10.633846c0-7.089231-4.726154-12.603077-10.633846-12.603077h-17.723077c-5.907692 0-10.633846 5.513846-10.633846 12.603077v10.633846c0 6.695385 4.726154 12.603077 10.633846 12.603077zM513.575385 166.596923c0-7.089231-4.726154-12.603077-10.633847-12.603077h-17.723076c-5.907692 0-10.633846 5.513846-10.633847 12.603077V177.230769c0 7.089231 4.726154 12.603077 10.633847 12.603077h17.32923c5.907692 0 10.633846-5.513846 10.633846-12.603077v-10.633846zM522.24 177.624615c0 7.089231 4.726154 12.603077 10.633846 12.603077h17.329231c5.907692 0 10.633846-5.513846 10.633846-12.603077v-10.633846c0-7.089231-4.726154-12.603077-10.633846-12.603077h-17.723077c-5.907692 0-10.633846 5.513846-10.633846 12.603077v10.633846zM580.135385 154.387692c-5.907692 0-10.633846 5.513846-10.633847 12.603077v10.633846c0 7.089231 4.726154 12.603077 10.633847 12.603077h17.723077c5.907692 0 10.633846-5.513846 10.633846-12.603077v-10.633846c0-7.089231-4.726154-12.603077-10.633846-12.603077h-17.723077zM446.227692 144.147692h15.753846c5.12 0 9.058462-4.332308 9.058462-9.846154v-9.058461c0-5.513846-3.938462-9.846154-9.058462-9.846154h-15.753846c-5.12 0-9.058462 4.332308-9.058461 9.846154v9.058461c-0.393846 5.12 3.938462 9.846154 9.058461 9.846154zM513.575385 125.243077c0-5.513846-3.938462-9.846154-9.058462-9.846154h-15.753846c-5.12 0-9.058462 4.332308-9.058462 9.846154v9.058461c0 5.513846 3.938462 9.846154 9.058462 9.846154h15.753846c5.12 0 9.058462-4.332308 9.058462-9.846154v-9.058461zM547.052308 144.147692c5.12 0 9.058462-4.332308 9.058461-9.846154v-9.058461c0-5.513846-3.938462-9.846154-9.058461-9.846154h-15.753846c-5.12 0-9.058462 4.332308-9.058462 9.846154v9.058461c0 5.513846 3.938462 9.846154 9.058462 9.846154h15.753846zM564.775385 125.243077v9.058461c0 5.513846 3.938462 9.846154 9.058461 9.846154h15.753846c5.12 0 9.058462-4.332308 9.058462-9.846154v-9.058461c0-5.513846-3.938462-9.846154-9.058462-9.846154h-15.753846c-5.12 0-9.058462 4.332308-9.058461 9.846154zM458.436923 104.763077h12.996923c3.544615 0 6.695385-4.332308 6.695385-9.058462v-8.664615c0-5.12-3.150769-9.058462-6.695385-9.058462h-12.996923c-3.544615 0-6.695385 4.332308-6.695385 9.058462v8.664615c0 5.12 3.150769 9.058462 6.695385 9.058462zM493.883077 104.763077h12.996923c3.544615 0 6.695385-4.332308 6.695385-9.058462v-8.664615c0-5.12-3.150769-9.058462-6.695385-9.058462h-12.996923c-3.544615 0-6.695385 4.332308-6.695385 9.058462v8.664615c-0.393846 5.12 2.756923 9.058462 6.695385 9.058462zM528.935385 104.763077h12.996923c3.544615 0 6.695385-4.332308 6.695384-9.058462v-8.664615c0-5.12-3.150769-9.058462-6.695384-9.058462h-12.996923c-3.544615 0-6.695385 4.332308-6.695385 9.058462v8.664615c-0.393846 5.12 2.756923 9.058462 6.695385 9.058462zM556.898462 87.04v8.664615c0 5.12 3.150769 9.058462 6.695384 9.058462h12.996923c3.544615 0 6.695385-4.332308 6.695385-9.058462v-8.664615c0-5.12-3.150769-9.058462-6.695385-9.058462h-12.996923c-3.544615 0-6.695385 4.332308-6.695384 9.058462zM471.04 67.347692h10.24c2.363077 0 4.726154-2.363077 4.726154-5.12v-5.907692c0-2.756923-1.969231-5.12-4.726154-5.12h-10.24c-2.363077 0-4.726154 2.363077-4.726154 5.12v5.907692c0 2.756923 1.969231 5.12 4.726154 5.12zM498.609231 67.347692h10.24c2.363077 0 4.726154-2.363077 4.726154-5.12v-5.907692c0-2.756923-1.969231-5.12-4.726154-5.12h-10.24c-2.363077 0-4.726154 2.363077-4.726154 5.12v5.907692c0.393846 2.756923 2.363077 5.12 4.726154 5.12zM526.572308 67.347692h10.24c2.363077 0 4.726154-2.363077 4.726154-5.12v-5.907692c0-2.756923-1.969231-5.12-4.726154-5.12h-10.24c-2.363077 0-4.726154 2.363077-4.726154 5.12v5.907692c0 2.756923 1.969231 5.12 4.726154 5.12zM554.141538 67.347692h10.24c2.363077 0 4.726154-2.363077 4.726154-5.12v-5.907692c0-2.756923-1.969231-5.12-4.726154-5.12h-10.24c-2.363077 0-4.726154 2.363077-4.726153 5.12v5.907692c0.393846 2.756923 2.363077 5.12 4.726153 5.12zM632.123077 406.449231c0-7.876923-6.301538-14.572308-14.572308-14.572308h-22.055384c-7.876923 0-14.572308 6.301538-14.572308 14.572308v12.209231c0 7.876923 6.301538 14.572308 14.572308 14.572307h22.055384c7.876923 0 14.572308-6.301538 14.572308-14.572307v-12.209231zM632.123077 456.073846c0-7.876923-6.301538-14.572308-14.572308-14.572308h-22.055384c-7.876923 0-14.572308 6.301538-14.572308 14.572308v12.209231c0 7.876923 6.301538 14.572308 14.572308 14.572308h22.055384c7.876923 0 14.572308-6.301538 14.572308-14.572308v-12.209231zM595.889231 540.356923c-7.876923 0-14.572308 6.301538-14.572308 14.572308v12.209231c0 5.907692 3.544615 11.027692 9.058462 13.390769 9.058462-15.753846 18.904615-29.144615 30.72-39.384616-1.181538-0.393846-2.363077-0.393846-3.544616-0.393846h-21.661538zM513.575385 752.246154c0-7.876923-6.301538-14.572308-14.572308-14.572308h-9.846154c3.150769 14.178462 6.301538 27.963077 9.452308 40.96h0.787692c7.876923 0 14.572308-6.301538 14.572308-14.572308v-11.815384zM539.569231 745.550769c0.393846-2.756923 0.787692-5.12 1.575384-7.876923h-4.726153c-7.876923 0-14.572308 6.301538-14.572308 14.572308v12.209231c0 6.695385 4.726154 12.603077 11.027692 14.178461 2.756923-10.633846 4.726154-21.661538 6.695385-33.083077zM500.578462 787.298462c3.150769 12.603077 5.907692 24.812308 9.058461 36.233846 2.363077-2.756923 3.938462-6.301538 3.938462-9.846154v-12.209231c0-7.483077-5.513846-13.784615-12.996923-14.178461zM522.24 801.476923v12.209231c0 2.756923 0.787692 5.12 1.969231 7.089231 2.756923-11.027692 5.12-21.661538 7.089231-32.689231-5.513846 1.969231-9.058462 7.483077-9.058462 13.390769zM347.372308 383.212308c28.356923 31.113846 89.796923 112.246154 110.670769 245.76 14.966154 94.916923 37.415385 182.350769 53.169231 242.215384-4.332308 15.753846-9.452308 32.689231-15.36 51.987693h-33.87077c-1.181538-0.787692-2.363077-1.181538-3.544615-1.969231-46.08-28.356923-72.861538-84.676923-77.587692-162.658462-2.363077-40.172308-3.938462-77.587692-5.12-113.821538 0 0-0.787692-184.713846-79.556923-301.686154 0 0.393846 20.873846 9.846154 51.2 40.172308zM460.406154 992.492308h115.396923v-58.683077h-115.396923V992.492308zM637.636923 561.624615v0.787693c4.726154 0.393846 9.058462 0.787692 11.815385 1.181538-3.938462-1.181538-7.876923-1.575385-11.815385-1.969231zM595.889231 531.692308h22.055384c7.876923 0 14.572308-6.301538 14.572308-14.572308v-12.209231c0-7.876923-6.301538-14.572308-14.572308-14.572307h-22.055384c-7.876923 0-14.572308 6.301538-14.572308 14.572307v12.209231c0 8.270769 6.695385 14.572308 14.572308 14.572308zM606.129231 575.409231c-27.175385 41.353846-43.323077 104.763077-55.926154 172.110769-11.815385 61.833846-20.873846 103.187692-43.323077 176.049231h70.104615c5.513846-3.544615 10.633846-7.483077 14.966154-11.815385 45.292308-45.292308 51.2-119.335385 56.32-184.713846 1.575385-20.086154 3.150769-38.596923 5.513846-56.32 6.695385-47.261538 14.178462-82.313846 16.147693-90.978462-6.695385-1.969231-14.178462-3.938462-22.055385-5.513846-9.058462-2.363077-26.781538-3.544615-41.747692 1.181539zM753.033846 561.624615c-14.966154-20.48-36.627692-34.264615-70.892308-33.476923-27.569231 0.787692-49.230769 13.390769-66.56 34.658462 7.876923-0.787692 19.298462-0.787692 19.298462-0.787692 9.452308 0.393846 18.510769 2.363077 18.510769 2.363076 69.316923 13.784615 100.036923 59.470769 111.852308 83.495385 2.363077-11.027692 3.544615-21.661538 3.544615-31.901538 0-22.449231-4.332308-39.384615-15.753846-54.35077z" p-id="3916"></path></svg>