<svg class="icon" style="width: 1em;height: 1em;vertical-align: middle;fill: currentColor;overflow: hidden;" viewBox="0 0 1024 1024" version="1.1" xmlns="http://www.w3.org/2000/svg" p-id="2889"><path d="M807.87125 414.665156C911.826013 240.341014 934.21627 70.814785 862.247588 18.037751c-86.362419-63.972162-279.878209 47.979122-423.815574 244.69352-15.993041 22.390257-31.986081 46.379818-46.379818 68.770074 17.592345 118.3485-1.599304 257.487953-15.99304 334.254547 83.163811-67.17077 267.083777-203.111615 431.812094-251.090736z m-4.797912-316.662203l7.99652-9.595824c7.99652-7.99652 20.790953-9.595824 28.787473-1.599304s7.99652 20.790953 1.599304 28.787473l-9.595824 9.595824c-4.797912 4.797912-9.595824 6.397216-14.393737 6.397217-4.797912 0-9.595824-1.599304-12.794432-4.797913-9.595824-7.99652-9.595824-20.790953-1.599304-28.787473zM767.888648 211.553541l7.996521-9.595824c7.99652-7.99652 20.790953-9.595824 28.787473-1.599304s9.595824 20.790953 1.599304 28.787473l-7.996521 9.595824c-4.797912 4.797912-9.595824 6.397216-14.393736 6.397216-4.797912 0-9.595824-1.599304-12.794432-4.797912-11.195128-7.99652-11.195128-20.790953-3.198609-28.787473z m-1.599304 105.554068c7.99652 7.99652 9.595824 20.790953 1.599304 28.787473l-7.99652 9.595824c-3.198608 4.797912-9.595824 6.397216-14.393736 6.397216-4.797912 0-9.595824-1.599304-12.794433-4.797912-7.99652-7.99652-7.99652-20.790953-1.599304-28.787473l7.996521-9.595824c6.397216-7.99652 19.191649-7.99652 27.188168-1.599304zM689.52275 129.989034l7.99652-9.595824c6.397216-6.397216 19.191649-7.99652 27.188169 0s7.99652 20.790953 1.599304 28.787473l-7.99652 9.595824c-4.797912 4.797912-9.595824 6.397216-14.393737 6.397217-4.797912 0-9.595824-1.599304-12.794432-4.797913-7.99652-9.595824-9.595824-20.790953-1.599304-30.386777zM655.937365 243.539622l7.99652-9.595824c7.99652-7.99652 20.790953-9.595824 28.787473-1.599304s7.99652 20.790953 1.599304 28.787473l-7.99652 9.595824c-4.797912 4.797912-9.595824 6.397216-14.393737 6.397216-4.797912 0-9.595824-1.599304-12.794432-4.797912-9.595824-7.99652-9.595824-20.790953-3.198608-28.787473z m-3.198608 123.146412c7.99652 7.99652 9.595824 20.790953 1.599304 28.787473l-7.996521 9.595825c-4.797912 4.797912-9.595824 6.397216-14.393736 6.397216-4.797912 0-9.595824-1.599304-12.794432-4.797912-7.99652-7.99652-7.99652-20.790953-1.599305-28.787473l6.397217-9.595825c7.99652-7.99652 20.790953-7.99652 28.787473-1.599304z m-71.968683-203.111614l7.996521-9.595825c7.99652-7.99652 20.790953-9.595824 28.787472-1.599304s7.99652 20.790953 1.599305 28.787473l-7.996521 9.595824c-4.797912 4.797912-9.595824 6.397216-14.393736 6.397217-4.797912 0-9.595824-1.599304-12.794433-4.797912-9.595824-7.99652-9.595824-19.191649-3.198608-28.787473z m-51.177729 123.146412l7.99652-9.595825c7.99652-7.99652 20.790953-9.595824 28.787473-1.599304s7.99652 20.790953 1.599304 28.787473l-7.99652 7.99652c-4.797912 4.797912-9.595824 7.99652-15.993041 7.996521-4.797912 0-9.595824-1.599304-12.794432-4.797912-7.99652-7.99652-7.99652-20.790953-1.599304-28.787473zM911.826013 437.055413c-25.588865 0-52.777034 4.797912-81.564506 11.195128-1.599304 1.599304-4.797912 1.599304-7.996521 1.599304-207.909527 57.574946-462.198871 279.878209-465.397479 281.477513-6.397216 6.397216-15.993041 6.397216-23.989561 1.599304-7.99652-4.797912-11.195128-12.794432-9.595824-22.390256 0-3.198608 52.777034-222.303263 27.188169-380.634365v-4.797912c-4.797912-31.986081-14.393736-60.773554-25.588865-84.763115-4.797912 25.588865-14.393736 57.574946-27.188169 99.156851l-1.599304 4.797913c-15.993041 49.578426-46.379818 105.554067-78.365899 166.327621-68.770074 131.142932-148.735277 281.477513-92.759635 387.031581 9.595824 17.592345 20.790953 31.986081 33.585385 44.780513l-23.98956 31.986081 65.571466 47.979122 28.787473-38.383297c6.397216 1.599304 14.393736 4.797912 22.390256 6.397216 76.766595 15.993041 167.926926-11.195128 238.296304-70.369378 63.972162-52.777034 116.749196-129.543628 172.724838-211.108135 73.567986-107.153372 148.735277-215.906047 252.69004-273.480993l-3.198608 1.599304z" p-id="2890"></path></svg>