<svg class="icon" style="width: 1em;height: 1em;vertical-align: middle;fill: currentColor;overflow: hidden;" viewBox="0 0 1024 1024" version="1.1" xmlns="http://www.w3.org/2000/svg" p-id="3140"><path d="M698.1 511.9c0.7-0.4 1.4-0.8 2.1-1.3-0.2-0.1-0.5-0.3-0.7-0.4-0.5 0.6-0.9 1.1-1.4 1.7z" fill="#1A1A1A" p-id="3141"></path><path d="M844.2 402.4c-7.6-6.9-17.9-9.3-27.4-7 13.5-30.8 21.4-59.1 23.6-84.5 3.5-40.3-7.2-73.2-31.9-97.8-25.1-25.1-58.2-36.1-98.6-32.7-2.1 0.2-4.1 0.4-6.2 0.6-0.9 0.1-1.8 0.2-2.7 0.4-23.7 3.1-49.8 11-77.8 23.6 3.5-10.2 1.3-21.6-6.2-29.9-9-10-23.3-12.9-35.5-7.1-59 28.1-177.1 99.1-304.9 259.2-68.6 86.1-97.6 164.8-85.9 234 4.1 24.7 13 44.8 22.9 60.7-1.8 1.2-3.4 2.6-5 4.1-17.4 17.4-12.3 48.9 12 73.2 14.6 14.6 31.9 22.3 47.1 22.3 10 0 19.2-3.4 26.1-10.3 1.6-1.6 3-3.3 4.2-5.2 15.8 9.7 35.7 18.4 60 22.5 10 1.7 20.1 2.5 30.4 2.5 61.6 0 129.9-29.6 203.6-88.4C752.2 615.1 823.2 497 851.3 438c5.8-12.2 3-26.5-7.1-35.6z m-90.6-178.9c10.4 3.6 19.5 9.3 27.4 17.2 8.2 8.2 13.7 17.7 17 28.1l-15 15c-9.3-6.4-18.8-13.9-27.3-22.4-6.7-6.7-12.8-14.1-18.4-21.6l16.3-16.3z m4.2 140.6l31.1-31.1c2.6 1.4 5 2.7 7.4 3.9-3.6 13.9-8.7 27.8-14.4 41-6.2-3.3-14.6-7.9-24.1-13.8z m7 48.8c-3.5 6.4-7.2 12.8-11 19.2-5.9 3.6-12 7.3-18.2 11.1-9.7-6.1-21.4-13.9-33.9-23l27.8-27.8c14.1 9.1 26.6 16 35.3 20.5z m-55.3-145.3c5.7 7.3 11.9 14.6 18.7 21.3 8.5 8.5 17.7 16.1 26.9 22.8l-29.9 29.9c-8.3-6.5-16.6-13.7-24.4-21.4-7.3-7.3-14.3-15.3-20.6-23.3l29.3-29.3zM404.8 572.4l28.3-28.3c7.4 8.5 15.2 16.9 23.2 24.9 7 7 14.2 13.7 21.4 20.1l-28.3 28.3c-7.3-6.4-14.5-13.1-21.5-20-8-8.1-15.8-16.5-23.1-25z m13.8 69.8c-11.1 7.4-22.2 14.4-32.9 21.1l-7.9-7.6c-7.4-7.4-14.5-15.1-21.3-22.9 6.6-10.6 13.6-21.5 20.9-32.5 7.3 8.3 15 16.6 22.9 24.6 6.1 6 12.2 11.8 18.3 17.3z m42.1-125.8l28.3-28.3c7.4 8.5 15.2 16.9 23.2 24.9 7 7 14.2 13.7 21.4 20.1l-28.3 28.3c-7.3-6.4-14.5-13.1-21.5-20-8-8-15.8-16.4-23.1-25z m28.1-90.6c7.4-11.9 14.8-23.9 22.2-35.9 2.9 3.9 5.9 8 9.1 12L492 430c-1.1-1.4-2.1-2.8-3.2-4.2z m27.8 34.7l28.3-28.3c7.4 8.5 15.2 16.9 23.2 24.9 7 7 14.2 13.7 21.4 20.1l-28.3 28.3c-7.3-6.4-14.5-13.1-21.5-20-8-8-15.7-16.4-23.1-25z m75 69.8l28.1-28.1c3 2.3 5.9 4.6 8.9 6.7-12 7.4-24 14.8-35.9 22.2-0.4-0.2-0.8-0.5-1.1-0.8z m25.5-80.6c-7.3-6.4-14.5-13.1-21.5-20-8-8-15.8-16.5-23.2-25l26.1-26.1c7.2 8.4 14.9 16.8 22.9 24.8 7.1 7.1 14.4 13.9 21.8 20.3l-26.1 26z m9.2-98.9l26.3-26.3c6.5 7.9 13.4 15.8 20.8 23.1 7.8 7.8 15.9 15 24.2 21.6L671 395.8c-7.4-6.4-14.8-13.1-21.9-20.2-8-7.9-15.6-16.3-22.8-24.8z m47.5 97.3c8.7 6.5 17.2 12.5 25 17.7-11.2 6.9-22.7 13.9-34.3 21.1-5.4-3.9-11.1-8-16.9-12.5l26.2-26.3z m8.1-223.1c1.7 3.1 3.5 6.3 5.5 9.7l-30 30c-6.2-9.8-11.3-18.6-15-25.4 13.9-6.2 27.1-11 39.5-14.3z m-97.2 44.8c7.5-4.6 15.1-9 22.8-13.3 5 9.2 12.4 22.1 21.8 36.3L602.1 320c-10.2-14-18.8-27-25.3-37.2 2.7-4.5 5.3-8.8 7.9-13z m-36.8 104.3c-5.3-7-10.2-13.8-14.7-20.2 7.2-11.6 14.2-23.1 21.1-34.3 5.8 8.7 12.5 18.3 19.9 28.2l-26.3 26.3zM296.1 657.7c-6.8 11.7-12.9 22.5-18.4 32.4-6.6 11.9-12.1 22.3-16.5 30.6-12-13-27.1-34.9-32.2-66.6-7.2-44.8 7-95.8 42.3-152.3 10.2-16.3 22.1-33 35.8-50.2 105.5-132.2 203.1-200.8 264.1-234.4-4.6 7.5-9.6 15.7-14.9 24.5-6.5 10.6-13.4 22-20.8 34.1-1.4 2.2-2.7 4.5-4.1 6.8-7 11.4-14.3 23.3-21.8 35.5-2.2 3.7-4.5 7.4-6.8 11.1-5.2 8.5-10.5 17.1-15.9 25.8-7.4 12-14.8 24-22.3 36.1-7.6 12.2-15.1 24.4-22.5 36.3-7.6 12.2-15.1 24.2-22.4 35.8-7.8 12.4-15.3 24.4-22.5 35.7-8.1 12.8-15.7 24.7-22.6 35.4-7.9 12.2-14.9 22.8-20.6 31.2-0.7 1.1-1.5 2.2-2.2 3.3-1.1 1.6-2.1 3.2-3.2 4.7-6.2 9.2-12.1 18.4-17.8 27.4-7.7 12.2-15.1 24-21.9 35.4-4.6 7.4-8.8 14.5-12.8 21.4z m55.2 26.5c-13.6 8-26.3 15.3-37.7 21.6 6.4-11.5 13.7-24.4 21.9-38.1 4.8 5.3 9.8 10.5 14.9 15.6 0.2 0.3 0.5 0.6 0.9 0.9z m216.5 28.2c-12.6 10-24.9 19.1-37 27.3-15.1 10.1-29.8 18.8-44.1 26.1-6.1 3.1-12 5.8-18 8.4-37.4 16-72 21.5-103.4 16.4-31.7-5.1-53.6-20.2-66.6-32.2 8.3-4.4 18.7-9.9 30.6-16.5 9.8-5.4 20.7-11.6 32.4-18.4 6.3-3.7 12.9-7.6 19.7-11.6 11.2-6.7 23-14 35-21.6 10.9-6.9 22.1-14.2 33.4-21.8 1.4-0.9 2.8-1.9 4.1-2.8 2.4-1.6 4.9-3.3 7.6-5.1 6.7-4.5 14.3-9.5 22.7-14.9 10.6-6.9 22.5-14.5 35.3-22.6 11.2-7.1 23.1-14.6 35.6-22.4 11.6-7.3 23.6-14.7 35.8-22.4 11.9-7.4 24-14.9 36.3-22.5 12-7.4 24.1-14.9 36.1-22.3 11.7-7.2 23.4-14.4 34.9-21.4 0.5-0.6 0.9-1.1 1.4-1.7 0.2 0.1 0.5 0.3 0.7 0.4 12.1-7.5 24.1-14.8 35.6-21.8 4.8-2.9 9.5-5.8 14.1-8.6 11.3-6.9 22.2-13.6 32.4-19.8 6.9-4.2 13.6-8.3 19.9-12.1-33.7 60.7-102.3 158.4-234.5 263.9z" fill="#1A1A1A" p-id="3142"></path></svg>