<svg class="icon" style="width: 1em;height: 1em;vertical-align: middle;fill: currentColor;overflow: hidden;" viewBox="0 0 1024 1024" version="1.1" xmlns="http://www.w3.org/2000/svg" p-id="2553"><path d="M1008.516129 668.903226c-18.064516-33.032258-58.83871-45.419355-92.387097-27.354839l-226.064516 121.806452c5.16129 17.548387 4.645161 37.677419-3.096774 56.258064-12.903226 30.967742-43.354839 51.096774-77.419355 51.096774-11.354839 0-22.193548-2.064516-32-6.193548l-111.483871-46.451613v-16.516129l117.16129 49.032258c8.774194 3.612903 18.064516 5.16129 26.83871 5.16129 26.322581 0 52.129032-15.483871 62.967742-41.806451 1.032258-2.064516 1.548387-4.129032 2.064516-6.193549 0-0.516129 0.516129-1.548387 0.516129-2.064516 0.516129-1.032258 0.516129-2.580645 1.032258-3.612903 0-1.032258 0.516129-2.064516 0.516129-3.096774 0-1.032258 0.516129-2.064516 0.516129-3.096774 0-1.032258 0.516129-2.064516 0.516129-3.612903v-1.548388c1.548387-27.870968-13.935484-54.709677-41.290322-66.064516l-312.774194-129.032258-139.354838 27.870968v260.129032h92.387096L629.677419 949.677419l350.967742-188.903225c33.548387-18.064516 45.935484-58.83871 27.870968-91.870968zM166.193548 598.193548c0-24.774194-20.129032-45.419355-45.419354-45.419354H52.645161c-24.774194 0-45.419355 20.129032-45.419355 45.419354v318.967742c0 25.290323 20.129032 45.419355 45.419355 45.419355h68.129033c24.774194 0 45.419355-20.129032 45.419354-45.419355v-318.967742z" fill="#0D0E05" p-id="2554"></path><path d="M417.032258 563.096774L459.354839 492.903226c4.129032-6.193548 7.225806 4.129032 15.483871 10.32258s19.096774 5.677419 14.451613 11.870968L438.709677 576c-10.322581 14.451613-26.322581-6.193548-21.677419-12.903226zM548.645161 330.322581c-25.806452-52.129032 2.064516-83.612903 2.064516-83.612904-13.935484 8.258065-79.483871 121.806452-35.612903 153.806452 19.612903 13.419355 63.483871-11.870968 33.548387-70.193548z m54.193549-74.322581c-25.806452-52.129032 2.064516-83.612903 2.064516-83.612903-13.935484 8.258065-79.483871 121.806452-35.612903 153.806451 19.612903 13.419355 62.967742-11.870968 33.548387-70.193548zM655.483871 183.225806c-26.322581-52.129032 2.064516-83.612903 2.064516-83.612903-13.935484 8.258065-79.483871 121.806452-35.612903 153.806452 19.096774 13.935484 62.967742-11.354839 33.548387-70.193549z m-93.419355 250.83871c43.870968 32 131.612903-66.064516 134.709678-81.548387 0 0-21.677419 36.645161-78.967742 27.870968-64.516129-9.806452-74.83871 39.225806-55.741936 53.677419z m-68.645161-27.354839c-26.322581-52.129032 2.064516-84.129032 2.064516-84.129032-13.935484 8.258065-79.483871 121.806452-35.612903 153.806452 19.612903 14.451613 62.967742-11.354839 33.548387-69.67742z m13.419355 103.741936c43.870968 32 131.612903-66.064516 134.709677-81.548387 0 0-21.677419 36.645161-78.967742 27.870968-64.516129-9.806452-75.354839 39.741935-55.741935 53.677419z m109.419355-151.225807c43.870968 32 131.612903-66.064516 134.709677-81.548387 0 0-21.677419 36.645161-78.967742 27.870968-64.516129-9.290323-75.354839 39.741935-55.741935 53.677419z m52.129032-71.741935c43.870968 32 131.612903-66.064516 134.709677-81.548387 0 0-21.677419 36.645161-78.967742 27.870968-64.516129-9.806452-74.83871 39.225806-55.741935 53.677419z m20.645161-71.225806c46.451613 33.548387 79.483871-115.612903 79.483871-115.612904-13.419355 6.709677-125.935484 82.064516-79.483871 115.612904z m-163.096774 434.580645l70.193548-30.967742c6.193548-3.096774-2.580645-8.774194-6.193548-18.580645-4.129032-10.322581-1.548387-21.16129-7.741936-18.064517l-67.096774 43.870968c-7.225806 4.129032-4.129032 31.483871 10.83871 23.741936z m204.903226-173.935484c3.612903-62.451613 41.290323-77.419355 41.290322-77.419355-14.967742 0.516129-121.806452 73.806452-101.16129 125.419355 9.290323 23.225806 56.258065 21.677419 59.870968-48z m78.967742-42.322581c3.612903-61.935484 41.290323-77.419355 41.290322-77.419355-14.967742 0.516129-121.806452 73.806452-101.16129 125.419355 8.774194 23.741935 56.258065 22.193548 59.870968-48z m76.387096-40.774193c3.612903-61.935484 41.290323-77.419355 41.290323-77.419355-14.967742 0.516129-121.806452 73.806452-101.16129 125.419355 9.290323 23.225806 56.258065 22.193548 59.870967-48z m-193.032258 187.354838c20.645161 52.129032 137.290323 6.193548 147.612904-7.225806 0 0-34.580645 23.741935-77.419355-14.451613-47.483871-42.322581-79.483871-2.064516-70.193549 21.677419z m-42.838709-61.419355c3.612903-61.935484 41.290323-77.935484 41.290322-77.935483-14.967742 0.516129-121.806452 73.806452-101.16129 125.935483 9.290323 23.741935 55.741935 22.193548 59.870968-48z m-38.193549 104.258065c20.645161 52.129032 137.290323 6.193548 147.612903-7.225806 0 0-34.580645 23.741935-76.903225-14.451613-48-42.322581-79.483871-1.548387-70.709678 21.677419z m160-85.16129c20.645161 52.129032 137.290323 5.677419 147.612903-7.225807 0 0-34.580645 23.741935-77.419354-14.451613-48-42.322581-79.483871-1.548387-70.193549 21.67742z m75.870968-40.774194c20.129032 52.129032 136.774194 5.677419 147.612903-7.225806 0 0-34.580645 23.225806-77.419355-14.451613-47.483871-42.322581-78.967742-1.548387-70.193548 21.677419z m50.064516-56.258064c21.677419 55.225806 118.709677-67.096774 118.709678-67.096775-13.935484-1.032258-140.387097 11.870968-118.709678 67.096775z" fill="#0D0E05" p-id="2555"></path></svg>